<?xml version="1.0" encoding="UTF-8"?><svg id="Capa_2" xmlns="http://www.w3.org/2000/svg" viewBox="0 0 515.95 320.47"><defs><style>.cls-1{fill:#016737;}.cls-2{fill:#e9efc8;stroke:#004225;stroke-miterlimit:10;stroke-width:2px;}</style></defs><g id="Capa_1-2"><path class="cls-2" d="M257.52,1C148.87,1,53.7,31.61,1,77.46V243.01c52.7,45.85,147.87,76.46,256.52,76.46s204.92-30.97,257.43-77.27V78.27C462.44,31.97,366.8,1,257.52,1Z"/><g><path class="cls-1" d="M102.89,177.75c.1,8.54-3.23,21.11-10.01,27.31-6.65,6.08-15.02,8.04-25.02,5.96-5.64-1.17-11.69-3.58-18.11-6.94-6.43-3.37-11.42-7.01-15.02-10.84,.06-.17,.09-.26,.15-.43-.06-2.14-.09-3.21-.15-5.35,0-7.8,.63-14.75,1.9-21.05,3.68,.12,5.53,.18,9.23,.3,1.88,8.59,2.82,12.99,4.71,21.99,6.18,5.05,13.58,8.54,22.21,9.83,1.31,.12,1.97,.18,3.28,.3,5.57-2.64,8.37-8.28,8.37-16.53,0-7.11-3.4-13.37-10.15-18.23-9.42-6.07-14.1-8.86-23.4-13.76-8.68-4.97-15.74-13.28-15.69-23.7,.04-8.49,3.57-16.27,10.1-23.93,6.21-7.29,16.79-14.23,26.01-16.83,8.05-2.27,17.15-2.94,27.09-.83,.13,12.13-.57,23.47-1.96,35.53-4.03,.5-6.04,.76-10.06,1.29-1.14-7.83-1.71-11.7-2.84-19.37-5.59-3.03-12.15-3.44-19.66-1.52-1.78,.53-2.67,.79-4.44,1.33-4.64,4.55-6.94,9.87-6.94,16.22,0,5.9,3.53,10.28,10.64,13.85,8.89,4.1,13.36,6.45,22.34,11.6,11.01,7.54,17.27,20.97,17.43,33.81Z"/><path class="cls-1" d="M149.99,222.93c-3.75-.43-7.64-1.54-11.61-3.33,0,10.75,0,16.12,0,26.87,53.22,15.77,115.31,15.58,170.01,11.82,56.08-3.85,109.36-16.62,162.71-33.49-1.31,3.06-1.97,4.61-3.29,7.76-114.71,45.1-236.89,53.39-356.63,24.16-.24-2.79-.36-4.19-.6-6.97,3.99-1.11,5.99-1.71,10-2.99,0-38.97,0-77.94,0-116.91-4.43,.25-6.64,.38-11.05,.65-.6-3.9-.91-5.85-1.51-9.72,7.05-4.74,14.98-8.04,23.81-9.55v.22c2.62,3.11,3.93,4.7,6.55,7.92v8.81c6.77-7.05,10.17-10.67,16.97-18.05,2.33-.56,3.49-.83,5.83-1.39,8.18-.65,15.04,4.1,20.29,14.36,6.32,12.36,7.57,25.81,8.01,39.36,.5,15.35-3.07,31.86-11.17,45.16-6.02,9.89-16.48,16.67-28.32,15.3Zm2.91-92c-3.67,.18-8.52,3.02-14.52,8.27v61.46c5.08,3.79,10.38,5.97,15.9,6.4,1.78-.04,2.67-.07,4.44-.12,3.58-3.39,6.42-8.75,8.52-16.06,2.1-7.31,3.15-15.05,3.15-23.1,0-10.22-1.62-19.06-4.84-26.36-3.22-7.3-7.44-10.75-12.65-10.48Z"/><path class="cls-1" d="M225.95,206.91c4.75,1.4,8.41,3.4,10.99,6.04-.25,4.7-.37,7.04-.62,11.74-13.21-.22-26.41-.69-39.6-1.43-.25-3.27-.37-4.9-.62-8.17,2.98-2.24,6.89-4.39,11.74-6.49V125.56c-4.64,.02-6.95,.04-11.58,.08-.62-4.57-.93-6.86-1.54-11.42,7.1-4.76,15.19-7.77,24.26-8.84,2.79,3.81,4.18,5.72,6.97,9.57v91.95Zm-8.2-120.19c-5.67-3.49-10.36-8.88-14.07-16.17,3.09-9.84,6.9-17.46,11.44-22.78,5.26,3.37,9.75,9.17,13.46,17.33-2.38,9.2-5.99,16.4-10.83,21.61Z"/><path class="cls-1" d="M307.99,112.9c3.2,9.1-1.28,28.29-4.17,42.14-4.02-.02-6.03-.03-10.05-.04-.99-10.85-1.48-16.28-2.48-27.17-7.29,7.23-13.86,16.9-18.26,26.13v52.32c7.74,1.52,13.11,3.57,16.1,6.23-.25,4.67-.37,7-.62,11.68-14.82,.43-29.62,.63-44.45,.59-.25-3.34-.37-5-.62-8.34,3.3-2.58,7.13-4.94,11.47-7.08,0-28.12,0-56.25,0-84.37-4.65-.1-6.97-.15-11.62-.22-.62-4.7-.93-7.05-1.55-11.75,7.13-4.63,15.24-7.35,24.32-8.07,2.79,3.95,4.18,5.93,6.97,9.88v20.78c5.23-8.95,10.48-17.88,15.79-26.78,2.47-1.54,5.1-2.27,7.89-2.16,4.43,.16,10.15,3.01,11.28,6.22Z"/><path class="cls-1" d="M342.32,204.29c4.7,.92,8.33,2.48,10.88,4.68-.25,4.36-.37,6.55-.61,10.92-13.1,1.31-26.22,2.36-39.36,3.14-.25-3.23-.37-4.84-.62-8.07,2.98-2.54,6.89-5.03,11.71-7.5V126.41c-4.62-.28-6.93-.41-11.56-.66-.62-4.6-.93-6.9-1.54-11.51,7.1-4.15,15.17-6.28,24.18-6.41,2.77,3.92,4.15,5.86,6.91,9.72v86.75Zm-8.14-114.48c-5.64-4.1-10.31-10-14.01-17.77,3.08-9.17,6.88-15.87,11.39-20.07,5.23,4.31,9.68,10.69,13.36,18.98-2.35,8.24-5.93,14.51-10.75,18.86Z"/><path class="cls-1" d="M392.19,198.04c2.72-.27,7.16-2.04,13.29-5.17,.78,3.78,1.17,5.65,1.96,9.38-8.49,6.58-12.75,10.02-21.3,17.08-4.05,.86-7.9-.58-11.55-4.49-3.65-3.91-5.48-8.59-5.48-13.86v-66.96c-3.96-.13-5.95-.18-9.92-.29-.37-4.49-.55-6.74-.92-11.25,4.18-3.15,8.04-5.4,11.6-6.83,2.68-10.98,4.02-16.38,6.7-27.02,3.53,.56,5.29,.85,8.81,1.45,.49,10.67,.73,15.99,1.21,26.6,8.49,.92,12.72,1.41,21.15,2.47,.18,2.89,.27,4.33,.45,7.22-2.89,3.91-4.34,5.92-7.23,10.03-5.61-.39-8.43-.57-14.07-.92v52.31c0,3.94,.38,6.69,1.14,8.23,.76,1.55,2.15,2.22,4.17,2.02Z"/><path class="cls-1" d="M432.88,140.12c0,3.65,1.24,6.69,3.72,9.03,2.48,2.33,6.29,4.94,11.41,7.66,3.96,2.4,5.94,3.55,9.88,5.73,7.74,4.82,11.58,10.72,11.58,18.6,0,6.65-2.48,12.45-7.46,17.89-4.99,5.44-11.66,9.2-19.46,11.04-8.58,2.02-20.55,0-28.04-4.83,2.64-8.34,3.96-12.43,6.59-20.44,7.11,6.52,18.82,11.59,28.55,11.81,2.36-2.78,3.54-5.78,3.54-9.12,0-3.12-1.01-5.64-3.03-7.66-2.02-2.02-6.72-4.66-14.15-8.43-7.43-3.76-12.52-7.91-15.22-12.06-2.69-4.15-4.05-9.08-4.05-14.63,0-8.77,2.9-15.55,8.68-19.81,5.77-4.26,12.83-5.45,21.11-3.97,7.59,1.36,14.3,4.41,20.15,8.64,.06,.01,.09,.02,.14,.03,.06,1.5,.09,2.26,.15,3.76,0,5.81-.88,11.33-2.63,16.81-3.81-.22-5.72-.32-9.55-.53-.88-5.62-1.33-8.46-2.21-14.2-5.21-2.53-11.35-4.93-14.65-4.2-2.75,.61-5.06,4.76-5.06,8.89Z"/></g></g></svg>