<svg
  width="30"
  height="30"
  viewBox="0 0 30 30"
  fill="none"
  xmlns="http://www.w3.org/2000/svg"
>
<path
    d="M18.1472 12.4809C20.0399 13.0915 21.7517 14.2558 23.1352 15.9C25.2775 18.446 26.45 21.9572 26.45 25.7812C26.45 25.8967 26.4201 26.0102 26.3632 26.1107C26.3063 26.2112 26.2243 26.2953 26.1253 26.3547L26.0224 26.1832L26.1253 26.3547C25.9184 26.4788 21.207 29.2625 15 29.2625C9.26778 29.2625 4.1186 26.4884 3.8985 26.3683L18.1472 12.4809ZM18.1472 12.4809C19.2327 11.8541 20.1099 10.9152 20.661 9.78093C21.2851 8.49623 21.4538 7.03744 21.1392 5.64422C20.8246 4.251 20.0454 3.00623 18.9298 2.11441C17.8141 1.22259 16.4283 0.736768 15 0.736768C13.5717 0.736768 12.1859 1.22259 11.0702 2.11441C9.95457 3.00623 9.17543 4.251 8.86083 5.64422C8.54622 7.03744 8.71486 8.49623 9.33904 9.78093C9.89011 10.9152 10.7673 11.8541 11.8528 12.4809L18.1472 12.4809ZM10.0437 7.03102C10.0438 6.05085 10.3345 5.09269 10.879 4.2777C11.4236 3.46265 12.1977 2.8274 13.1033 2.45227C14.009 2.07714 15.0055 1.97899 15.9669 2.17023C16.9283 2.36147 17.8115 2.83351 18.5046 3.52665C19.1977 4.2198 19.6698 5.10291 19.861 6.06433C20.0523 7.02575 19.9541 8.02229 19.579 8.92792C19.2039 9.83356 18.5686 10.6076 17.7535 11.1522C16.9386 11.6968 15.9804 11.9875 15.0002 11.9875C13.6861 11.986 12.4263 11.4633 11.4971 10.5341C10.5679 9.60494 10.0452 8.3451 10.0437 7.03102ZM7.88816 16.7611C9.75642 14.5413 12.2816 13.325 15 13.325C17.7184 13.325 20.2436 14.5413 22.1118 16.7611C23.97 18.9694 25.0316 22.0189 25.1081 25.3892C23.9526 26.0008 19.9241 27.925 15 27.925C10.4459 27.925 6.13817 25.9863 4.89233 25.3739C4.9718 22.0095 6.03283 18.9661 7.88816 16.7611Z"
    fill="#004225"
    stroke="#004225"
    stroke-width="0.4"
  />
</svg>
