<?xml version="1.0" encoding="UTF-8"?><svg id="Capa_2" xmlns="http://www.w3.org/2000/svg" viewBox="0 0 128 128"><defs><style>.cls-1{fill:#016737;}.cls-2{fill:#f1f4d4;}</style></defs><g id="Capa_1-2"><rect class="cls-2" width="128" height="128" rx="12" ry="12"/><path class="cls-1" d="M99.18,85.73c0,8.55-3.27,15.52-9.8,20.92-6.53,5.4-14.76,8.1-24.68,8.1-5.6,0-11.62-.88-18.05-2.65-6.44-1.77-11.47-4.17-15.1-7.22l.15-.44-.15-5.16c0-7.56,.64-14.39,1.92-20.48h9.28l4.72,19.45c6.19,3.73,13.56,5.6,22.1,5.6l3.24-.15c5.5-2.75,8.25-7.32,8.25-13.7,0-5.5-3.34-10.17-10.02-14l-23.28-11.94c-10.51-6.19-15.77-14.09-15.77-23.72,0-8.25,3.39-14.96,10.17-20.11,6.78-5.16,15.42-7.74,25.93-7.74,8.05,0,16.94,1.62,26.67,4.86,.49,8.25-.15,16.94-1.92,26.08h-9.87l-2.8-15.32c-5.5-3.24-11.99-4.86-19.45-4.86l-4.42,.15c-4.62,2.85-6.93,7.07-6.93,12.67,0,5.21,3.54,9.68,10.61,13.41l22.1,10.9c11.39,6.39,17.09,14.83,17.09,25.34Z"/></g></svg>